<?xml version="1.0" standalone="no"?>
<!DOCTYPE svg PUBLIC "-//W3C//DTD SVG 20010904//EN"
 "http://www.w3.org/TR/2001/REC-SVG-20010904/DTD/svg10.dtd">
<svg version="1.0" xmlns="http://www.w3.org/2000/svg"
 width="512.000000pt" height="512.000000pt" viewBox="0 0 512.000000 512.000000"
 preserveAspectRatio="xMidYMid meet">
<metadata>
Created by potrace 1.14, written by Peter Selinger 2001-2017
</metadata>
<g transform="translate(0.000000,512.000000) scale(0.100000,-0.100000)"
fill="#000000" stroke="none">
<path d="M0 2560 l0 -2560 2560 0 2560 0 0 2560 0 2560 -2560 0 -2560 0 0
-2560z m2969 1346 c183 -32 312 -87 402 -173 79 -75 104 -133 104 -243 -1
-107 -27 -168 -109 -257 -54 -59 -59 -62 -79 -48 -42 27 -167 74 -269 100 -83
22 -134 28 -263 32 -179 6 -265 -7 -341 -52 -76 -45 -104 -126 -68 -196 25
-50 96 -84 327 -160 399 -129 576 -220 732 -374 131 -130 184 -241 205 -434
26 -235 -37 -431 -189 -593 -84 -90 -160 -145 -266 -194 -329 -152 -903 -163
-1262 -24 -155 59 -273 160 -312 266 -25 66 -28 182 -6 244 22 63 81 137 148
186 l59 44 56 -39 c124 -84 282 -149 429 -177 66 -12 123 -15 228 -12 171 6
231 25 294 93 47 51 55 77 49 146 -9 92 -61 126 -348 224 -374 128 -542 203
-664 296 -128 97 -218 235 -252 386 -25 114 -16 321 20 429 45 140 155 281
289 373 124 85 334 152 542 175 90 9 453 -3 544 -18z"/>
</g>
</svg>
